<?xml version="1.0" standalone="no"?>
<!DOCTYPE svg PUBLIC "-//W3C//DTD SVG 20010904//EN"
 "http://www.w3.org/TR/2001/REC-SVG-20010904/DTD/svg10.dtd">
<svg version="1.0" xmlns="http://www.w3.org/2000/svg"
 width="1847.000000pt" height="1847.000000pt" viewBox="0 0 1847.000000 1847.000000"
 preserveAspectRatio="xMidYMid meet">
<metadata>
Created by potrace 1.11, written by Peter Selinger 2001-2013
</metadata>
<g transform="translate(0.000000,1847.000000) scale(0.100000,-0.100000)"
fill="#000000" stroke="none">
<path d="M0 10438 c0 -4427 3 -6398 11 -6478 81 -872 592 -1622 1370 -2012
300 -150 606 -236 954 -268 154 -14 9537 -14 9695 0 338 31 641 115 935 260
694 341 1189 976 1345 1723 51 246 52 268 57 1179 l5 858 746 0 c970 0 1117 9
1417 80 446 106 850 328 1174 644 413 404 649 870 739 1459 16 103 17 284 17
2357 0 2404 2 2284 -51 2548 -71 357 -253 746 -482 1032 -377 471 -902 791
-1492 909 -241 48 -310 51 -1217 51 l-853 0 0 1010 0 1010 -7185 0 -7185 0 0
-6362z m16238 3305 c415 -95 742 -315 959 -645 104 -157 174 -331 219 -538 18
-81 19 -182 19 -2315 0 -2146 -1 -2233 -19 -2320 -130 -621 -589 -1067 -1221
-1187 -105 -20 -148 -21 -967 -25 l-858 -4 0 3531 0 3531 888 -4 c863 -3 890
-4 980 -24z m-11643 -1483 l433 -251 -37 -67 c-21 -37 -437 -774 -924 -1639
l-886 -1572 945 -1633 c521 -898 948 -1636 950 -1640 4 -6 -866 -512 -871
-506 -1 2 -509 853 -1129 1891 l-1127 1888 1103 1889 c606 1040 1104 1890
1106 1890 2 0 199 -113 437 -250z m6724 -1647 c600 -1029 1091 -1876 1091
-1882 0 -12 -2176 -3748 -2194 -3768 -8 -9 -112 46 -436 233 -234 136 -428
249 -433 253 -4 4 418 742 938 1639 520 898 945 1637 945 1643 0 5 -423 740
-939 1632 -517 892 -941 1628 -943 1636 -2 8 152 103 427 262 337 195 432 246
441 236 6 -6 503 -854 1103 -1884z m-3136 1674 c263 -68 479 -126 482 -128 4
-5 -1989 -7096 -1997 -7104 -3 -4 -1021 293 -1024 298 -3 6 2052 7057 2057
7057 3 0 220 -56 482 -123z"/>
</g>
</svg>
