<svg data-v-423bf9ae="" xmlns="http://www.w3.org/2000/svg" viewBox="0 0 456 90" class="iconLeft"><!----><!----><!----><g data-v-423bf9ae="" id="2fd675e3-f060-42b8-a7d4-a477e5d96150" fill="white" transform="matrix(4.319654617459175,0,0,4.319654617459175,72.01295225592813,1.9978413115733744)"><path d="M4.00 13.65L4.00 13.65Q2.88 13.65 2.08 13.19L2.08 13.19L2.08 13.19Q1.27 12.73 0.87 11.92L0.87 11.92L0.87 11.92Q0.46 11.12 0.46 10.12L0.46 10.12L0.46 10.12Q0.46 8.50 1.38 7.50L1.38 7.50L1.38 7.50Q2.30 6.51 4.10 6.51L4.10 6.51L4.10 6.51Q5.17 6.51 5.98 6.92L5.98 6.92L5.78 8.02L5.78 8.02Q4.93 7.63 4.07 7.63L4.07 7.63L4.07 7.63Q2.95 7.63 2.35 8.27L2.35 8.27L2.35 8.27Q1.75 8.90 1.75 10.07L1.75 10.07L1.75 10.07Q1.75 11.23 2.33 11.89L2.33 11.89L2.33 11.89Q2.91 12.54 4.05 12.54L4.05 12.54L4.05 12.54Q4.96 12.54 5.80 12.12L5.80 12.12L5.96 13.13L5.96 13.13Q5.66 13.34 5.12 13.50L5.12 13.50L5.12 13.50Q4.58 13.65 4.00 13.65L4.00 13.65ZM10.21 13.65L10.21 13.65Q9.16 13.65 8.39 13.18L8.39 13.18L8.39 13.18Q7.62 12.71 7.21 11.90L7.21 11.90L7.21 11.90Q6.80 11.09 6.80 10.08L6.80 10.08L6.80 10.08Q6.80 9.07 7.21 8.26L7.21 8.26L7.21 8.26Q7.62 7.45 8.39 6.98L8.39 6.98L8.39 6.98Q9.16 6.51 10.21 6.51L10.21 6.51L10.21 6.51Q11.24 6.51 12.02 6.98L12.02 6.98L12.02 6.98Q12.80 7.45 13.20 8.26L13.20 8.26L13.20 8.26Q13.61 9.07 13.61 10.08L13.61 10.08L13.61 10.08Q13.61 11.09 13.20 11.90L13.20 11.90L13.20 11.90Q12.80 12.71 12.02 13.18L12.02 13.18L12.02 13.18Q11.24 13.65 10.21 13.65L10.21 13.65ZM10.21 12.53L10.21 12.53Q11.21 12.53 11.77 11.89L11.77 11.89L11.77 11.89Q12.32 11.24 12.32 10.08L12.32 10.08L12.32 10.08Q12.32 8.92 11.77 8.27L11.77 8.27L11.77 8.27Q11.21 7.63 10.21 7.63L10.21 7.63L10.21 7.63Q9.20 7.63 8.64 8.27L8.64 8.27L8.64 8.27Q8.09 8.92 8.09 10.08L8.09 10.08L8.09 10.08Q8.09 11.24 8.64 11.89L8.64 11.89L8.64 11.89Q9.20 12.53 10.21 12.53L10.21 12.53ZM19.73 3.01L20.99 3.01L20.99 13.51L19.87 13.51L19.73 12.67L19.73 12.67Q19.38 13.15 18.82 13.40L18.82 13.40L18.82 13.40Q18.26 13.65 17.63 13.65L17.63 13.65L17.63 13.65Q16.76 13.65 16.04 13.17L16.04 13.17L16.04 13.17Q15.33 12.70 14.92 11.89L14.92 11.89L14.92 11.89Q14.50 11.07 14.50 10.09L14.50 10.09L14.50 10.09Q14.50 9.14 14.89 8.32L14.89 8.32L14.89 8.32Q15.27 7.49 15.99 7L15.99 7L15.99 7Q16.70 6.51 17.63 6.51L17.63 6.51L17.63 6.51Q18.24 6.51 18.79 6.73L18.79 6.73L18.79 6.73Q19.33 6.96 19.73 7.42L19.73 7.42L19.73 3.01ZM17.85 12.53L17.85 12.53Q18.35 12.53 18.82 12.27L18.82 12.27L18.82 12.27Q19.28 12.01 19.57 11.47L19.57 11.47L19.57 11.47Q19.87 10.92 19.87 10.09L19.87 10.09L19.87 10.09Q19.87 9.32 19.57 8.76L19.57 8.76L19.57 8.76Q19.28 8.20 18.81 7.92L18.81 7.92L18.81 7.92Q18.34 7.63 17.85 7.63L17.85 7.63L17.85 7.63Q16.90 7.63 16.35 8.32L16.35 8.32L16.35 8.32Q15.79 9.02 15.79 10.09L15.79 10.09L15.79 10.09Q15.79 11.13 16.35 11.83L16.35 11.83L16.35 11.83Q16.91 12.53 17.85 12.53L17.85 12.53ZM25.97 13.65L25.97 13.65Q24.79 13.65 23.96 13.17L23.96 13.17L23.96 13.17Q23.13 12.68 22.69 11.86L22.69 11.86L22.69 11.86Q22.26 11.03 22.26 10.02L22.26 10.02L22.26 10.02Q22.26 9.06 22.66 8.25L22.66 8.25L22.66 8.25Q23.06 7.45 23.82 6.98L23.82 6.98L23.82 6.98Q24.58 6.51 25.62 6.51L25.62 6.51L25.62 6.51Q26.94 6.51 27.76 7.28L27.76 7.28L27.76 7.28Q28.57 8.05 28.57 9.41L28.57 9.41L28.57 9.41Q28.57 9.76 28.52 10.08L28.52 10.08L23.55 10.08L23.55 10.08Q23.67 11.41 24.36 11.97L24.36 11.97L24.36 11.97Q25.05 12.53 26.12 12.53L26.12 12.53L26.12 12.53Q27.20 12.53 28.10 12.12L28.10 12.12L28.27 13.12L28.27 13.12Q27.08 13.65 25.97 13.65L25.97 13.65ZM23.66 9.21L27.27 9.21L27.27 9.21Q27.27 8.47 26.85 8.05L26.85 8.05L26.85 8.05Q26.43 7.63 25.59 7.63L25.59 7.63L25.59 7.63Q24.78 7.63 24.32 8.03L24.32 8.03L24.32 8.03Q23.86 8.43 23.66 9.21L23.66 9.21ZM33.22 6.51L33.22 6.51Q34.15 6.51 34.85 7L34.85 7L34.85 7Q35.56 7.49 35.94 8.31L35.94 8.31L35.94 8.31Q36.32 9.13 36.32 10.08L36.32 10.08L36.32 10.08Q36.32 11.06 35.90 11.88L35.90 11.88L35.90 11.88Q35.49 12.70 34.78 13.17L34.78 13.17L34.78 13.17Q34.08 13.65 33.22 13.65L33.22 13.65L33.22 13.65Q32.59 13.65 32.00 13.39L32.00 13.39L32.00 13.39Q31.42 13.13 31.09 12.67L31.09 12.67L30.95 13.51L29.83 13.51L29.83 3.01L31.09 3.01L31.09 7.45L31.09 7.45Q31.47 7.01 32.04 6.76L32.04 6.76L32.04 6.76Q32.61 6.51 33.22 6.51L33.22 6.51ZM33.07 12.53L33.07 12.53Q33.95 12.53 34.49 11.82L34.49 11.82L34.49 11.82Q35.03 11.12 35.03 10.08L35.03 10.08L35.03 10.08Q35.03 9.02 34.49 8.32L34.49 8.32L34.49 8.32Q33.95 7.63 33.07 7.63L33.07 7.63L33.07 7.63Q32.20 7.63 31.61 8.27L31.61 8.27L31.61 8.27Q31.02 8.90 31.02 10.08L31.02 10.08L31.02 10.08Q31.02 11.30 31.61 11.91L31.61 11.91L31.61 11.91Q32.19 12.53 33.07 12.53L33.07 12.53ZM38.14 16.90L39.72 13.20L36.86 6.65L38.26 6.65L40.40 11.75L42.34 6.65L43.74 6.65L39.54 16.90L38.14 16.90ZM44.67 13.51L44.67 3.01L45.93 3.01L45.93 9.74L48.45 6.65L49.99 6.65L47.26 9.84L50.06 13.51L48.52 13.51L45.93 10.02L45.93 13.51L44.67 13.51ZM54.25 13.65L54.25 13.65Q53.07 13.65 52.24 13.17L52.24 13.17L52.24 13.17Q51.41 12.68 50.97 11.86L50.97 11.86L50.97 11.86Q50.54 11.03 50.54 10.02L50.54 10.02L50.54 10.02Q50.54 9.06 50.94 8.25L50.94 8.25L50.94 8.25Q51.34 7.45 52.10 6.98L52.10 6.98L52.10 6.98Q52.86 6.51 53.90 6.51L53.90 6.51L53.90 6.51Q55.22 6.51 56.04 7.28L56.04 7.28L56.04 7.28Q56.85 8.05 56.85 9.41L56.85 9.41L56.85 9.41Q56.85 9.76 56.80 10.08L56.80 10.08L51.83 10.08L51.83 10.08Q51.95 11.41 52.64 11.97L52.64 11.97L52.64 11.97Q53.33 12.53 54.40 12.53L54.40 12.53L54.40 12.53Q55.48 12.53 56.38 12.12L56.38 12.12L56.55 13.12L56.55 13.12Q55.36 13.65 54.25 13.65L54.25 13.65ZM51.94 9.21L55.55 9.21L55.55 9.21Q55.55 8.47 55.13 8.05L55.13 8.05L55.13 8.05Q54.71 7.63 53.87 7.63L53.87 7.63L53.87 7.63Q53.06 7.63 52.60 8.03L52.60 8.03L52.60 8.03Q52.14 8.43 51.94 9.21L51.94 9.21ZM60.02 13.51L57.40 6.65L58.80 6.65L60.72 12.12L62.62 6.65L64.04 6.65L61.43 13.51L60.02 13.51ZM64.86 13.51L64.86 12.03L66.37 12.03L66.37 13.51L64.86 13.51ZM72.74 3.01L74.00 3.01L74.00 13.51L72.88 13.51L72.74 12.67L72.74 12.67Q72.39 13.15 71.83 13.40L71.83 13.40L71.83 13.40Q71.27 13.65 70.64 13.65L70.64 13.65L70.64 13.65Q69.78 13.65 69.06 13.17L69.06 13.17L69.06 13.17Q68.35 12.70 67.94 11.89L67.94 11.89L67.94 11.89Q67.52 11.07 67.52 10.09L67.52 10.09L67.52 10.09Q67.52 9.14 67.91 8.32L67.91 8.32L67.91 8.32Q68.29 7.49 69.01 7L69.01 7L69.01 7Q69.72 6.51 70.64 6.51L70.64 6.51L70.64 6.51Q71.26 6.51 71.81 6.73L71.81 6.73L71.81 6.73Q72.35 6.96 72.74 7.42L72.74 7.42L72.74 3.01ZM70.87 12.53L70.87 12.53Q71.37 12.53 71.83 12.27L71.83 12.27L71.83 12.27Q72.30 12.01 72.59 11.47L72.59 11.47L72.59 11.47Q72.88 10.92 72.88 10.09L72.88 10.09L72.88 10.09Q72.88 9.32 72.59 8.76L72.59 8.76L72.59 8.76Q72.30 8.20 71.83 7.92L71.83 7.92L71.83 7.92Q71.36 7.63 70.87 7.63L70.87 7.63L70.87 7.63Q69.92 7.63 69.36 8.32L69.36 8.32L69.36 8.32Q68.81 9.02 68.81 10.09L68.81 10.09L68.81 10.09Q68.81 11.13 69.37 11.83L69.37 11.83L69.37 11.83Q69.93 12.53 70.87 12.53L70.87 12.53ZM78.99 13.65L78.99 13.65Q77.81 13.65 76.98 13.17L76.98 13.17L76.98 13.17Q76.15 12.68 75.71 11.86L75.71 11.86L75.71 11.86Q75.28 11.03 75.28 10.02L75.28 10.02L75.28 10.02Q75.28 9.06 75.68 8.25L75.68 8.25L75.68 8.25Q76.08 7.45 76.84 6.98L76.84 6.98L76.84 6.98Q77.60 6.51 78.64 6.51L78.64 6.51L78.64 6.51Q79.95 6.51 80.77 7.28L80.77 7.28L80.77 7.28Q81.59 8.05 81.59 9.41L81.59 9.41L81.59 9.41Q81.59 9.76 81.54 10.08L81.54 10.08L76.57 10.08L76.57 10.08Q76.69 11.41 77.38 11.97L77.38 11.97L77.38 11.97Q78.06 12.53 79.14 12.53L79.14 12.53L79.14 12.53Q80.22 12.53 81.12 12.12L81.12 12.12L81.28 13.12L81.28 13.12Q80.09 13.65 78.99 13.65L78.99 13.65ZM76.68 9.21L80.29 9.21L80.29 9.21Q80.29 8.47 79.87 8.05L79.87 8.05L79.87 8.05Q79.45 7.63 78.61 7.63L78.61 7.63L78.61 7.63Q77.80 7.63 77.34 8.03L77.34 8.03L77.34 8.03Q76.87 8.43 76.68 9.21L76.68 9.21ZM84.76 13.51L82.14 6.65L83.54 6.65L85.46 12.12L87.36 6.65L88.77 6.65L86.17 13.51L84.76 13.51Z"></path></g><!----><g data-v-423bf9ae="" id="be655463-de12-46e1-92cb-92d7a97a92eb" transform="matrix(1.5,0,0,1.5,-21,-3)" stroke="none" fill="white"><style></style><path d="M45 36h-3v-4H14v25c0 2.8 2.2 5 5 5h18c2.8 0 5-2.2 5-5v-3h3c2.8 0 5-2.2 5-5v-8c0-2.8-2.2-5-5-5zM23.9 54.5l-1.7 1-4.4-7.5 4.3-7.5 1.7 1-3.6 6.5 3.7 6.5zm3.1.8l-2-.6 4-14 1.9.5L27 55.3zm6.9.2l-1.7-1 3.7-6.5-3.7-6.5 1.7-1 4.3 7.5-4.3 7.5zM48 49c0 1.7-1.3 3-3 3h-3V38h3c1.7 0 3 1.3 3 3v8zM38 30h-2v-2c0-1.1-.9-2-2-2H20c-2.2 0-4-1.8-4-4s1.8-4 4-4h14c1.1 0 2-.9 2-2s-.9-2-2-2H20c-2.2 0-4-1.8-4-4s1.8-4 4-4h14c1.1 0 2-.9 2-2V2h2v2c0 2.2-1.8 4-4 4H20c-1.1 0-2 .9-2 2s.9 2 2 2h14c2.2 0 4 1.8 4 4s-1.8 4-4 4H20c-1.1 0-2 .9-2 2s.9 2 2 2h14c2.2 0 4 1.8 4 4v2z"></path></g><!----></svg>